<svg width="28" height="28" viewBox="0 0 28 28" fill="none" xmlns="http://www.w3.org/2000/svg">
<rect x="0.5" y="0.5" width="27" height="27" rx="2.5" fill="white" stroke="#3E67B6"/>
<mask id="path-2-inside-1" fill="white">
<path fill-rule="evenodd" clip-rule="evenodd" d="M3.58579 21.9706C2.80474 22.7516 2.80474 24.0179 3.58579 24.799C4.36683 25.58 5.63316 25.58 6.41421 24.799L14.1923 17.0209L21.9913 24.8198C22.7723 25.6009 24.0386 25.6009 24.8197 24.8198C25.6007 24.0388 25.6007 22.7724 24.8197 21.9914L17.0208 14.1925L24.799 6.41421C25.58 5.63316 25.58 4.36683 24.799 3.58579C24.0179 2.80474 22.7516 2.80474 21.9706 3.58579L14.1923 11.364L6.43491 3.60661C5.65386 2.82556 4.38753 2.82556 3.60648 3.60661C2.82543 4.38766 2.82543 5.65399 3.60648 6.43503L11.3639 14.1925L3.58579 21.9706Z"/>
</mask>
<path fill-rule="evenodd" clip-rule="evenodd" d="M3.58579 21.9706C2.80474 22.7516 2.80474 24.0179 3.58579 24.799C4.36683 25.58 5.63316 25.58 6.41421 24.799L14.1923 17.0209L21.9913 24.8198C22.7723 25.6009 24.0386 25.6009 24.8197 24.8198C25.6007 24.0388 25.6007 22.7724 24.8197 21.9914L17.0208 14.1925L24.799 6.41421C25.58 5.63316 25.58 4.36683 24.799 3.58579C24.0179 2.80474 22.7516 2.80474 21.9706 3.58579L14.1923 11.364L6.43491 3.60661C5.65386 2.82556 4.38753 2.82556 3.60648 3.60661C2.82543 4.38766 2.82543 5.65399 3.60648 6.43503L11.3639 14.1925L3.58579 21.9706Z" fill="#E9EEFF"/>
<path d="M3.58579 24.799L4.29289 24.0919H4.29289L3.58579 24.799ZM3.58579 21.9706L4.29289 22.6777H4.29289L3.58579 21.9706ZM6.41421 24.799L5.70711 24.0919H5.70711L6.41421 24.799ZM14.1923 17.0209L14.8994 16.3138L14.1923 15.6067L13.4852 16.3138L14.1923 17.0209ZM24.8197 21.9914L25.5268 21.2843L24.8197 21.9914ZM17.0208 14.1925L16.3136 13.4853L15.6065 14.1925L16.3136 14.8996L17.0208 14.1925ZM24.799 6.41421L25.5061 7.12132V7.12132L24.799 6.41421ZM24.799 3.58579L24.0919 4.29289L24.799 3.58579ZM21.9706 3.58579L22.6777 4.29289V4.29289L21.9706 3.58579ZM14.1923 11.364L13.4852 12.0711L14.1923 12.7782L14.8994 12.0711L14.1923 11.364ZM6.43491 3.60661L7.14201 2.8995L6.43491 3.60661ZM3.60648 3.60661L2.89937 2.8995L2.89937 2.8995L3.60648 3.60661ZM3.60648 6.43503L4.31359 5.72793L3.60648 6.43503ZM11.3639 14.1925L12.071 14.8996L12.7781 14.1925L12.071 13.4853L11.3639 14.1925ZM4.29289 24.0919C3.90237 23.7014 3.90237 23.0682 4.29289 22.6777L2.87868 21.2635C1.70711 22.435 1.70711 24.3345 2.87868 25.5061L4.29289 24.0919ZM5.70711 24.0919C5.31658 24.4824 4.68342 24.4824 4.29289 24.0919L2.87868 25.5061C4.05025 26.6777 5.94975 26.6777 7.12132 25.5061L5.70711 24.0919ZM13.4852 16.3138L5.70711 24.0919L7.12132 25.5061L14.8994 17.728L13.4852 16.3138ZM22.6984 24.1127L14.8994 16.3138L13.4852 17.728L21.2841 25.5269L22.6984 24.1127ZM24.1126 24.1127C23.7221 24.5032 23.0889 24.5032 22.6984 24.1127L21.2841 25.5269C22.4557 26.6985 24.3552 26.6985 25.5268 25.5269L24.1126 24.1127ZM24.1126 22.6985C24.5031 23.089 24.5031 23.7222 24.1126 24.1127L25.5268 25.5269C26.6984 24.3553 26.6984 22.4558 25.5268 21.2843L24.1126 22.6985ZM16.3136 14.8996L24.1126 22.6985L25.5268 21.2843L17.7279 13.4853L16.3136 14.8996ZM24.0919 5.70711L16.3136 13.4853L17.7279 14.8996L25.5061 7.12132L24.0919 5.70711ZM24.0919 4.29289C24.4824 4.68342 24.4824 5.31658 24.0919 5.70711L25.5061 7.12132C26.6777 5.94975 26.6777 4.05025 25.5061 2.87868L24.0919 4.29289ZM22.6777 4.29289C23.0682 3.90237 23.7014 3.90237 24.0919 4.29289L25.5061 2.87868C24.3345 1.70711 22.435 1.70711 21.2635 2.87868L22.6777 4.29289ZM14.8994 12.0711L22.6777 4.29289L21.2635 2.87868L13.4852 10.6569L14.8994 12.0711ZM5.7278 4.31371L13.4852 12.0711L14.8994 10.6569L7.14201 2.8995L5.7278 4.31371ZM4.31359 4.31371C4.70411 3.92319 5.33728 3.92319 5.7278 4.31371L7.14201 2.8995C5.97044 1.72793 4.07095 1.72793 2.89937 2.8995L4.31359 4.31371ZM4.31359 5.72793C3.92306 5.3374 3.92306 4.70424 4.31359 4.31371L2.89937 2.8995C1.7278 4.07107 1.7278 5.97057 2.89937 7.14214L4.31359 5.72793ZM12.071 13.4853L4.31359 5.72793L2.89937 7.14214L10.6568 14.8996L12.071 13.4853ZM4.29289 22.6777L12.071 14.8996L10.6568 13.4853L2.87868 21.2635L4.29289 22.6777Z" fill="#3E67B6" mask="url(#path-2-inside-1)"/>
</svg>
