<svg width="89" height="89" viewBox="0 0 89 89" fill="none" xmlns="http://www.w3.org/2000/svg">
<path d="M1 14V84" stroke="#3E67B6" stroke-width="2"/>
<path d="M44.5268 59.056V62H13.7428V59.696L32.6868 40.88C35.1614 38.4053 36.8254 36.2933 37.6788 34.544C38.5748 32.752 39.0228 30.9173 39.0228 29.04C39.0228 26.1813 38.0414 23.9413 36.0788 22.32C34.1588 20.6987 31.3641 19.888 27.6948 19.888C24.8788 19.888 22.4041 20.3147 20.2708 21.168C18.1801 22.0213 16.3668 23.3227 14.8308 25.072L12.5268 23.024C14.2334 21.0613 16.3881 19.5467 18.9908 18.48C21.6361 17.4133 24.6228 16.88 27.9508 16.88C32.3454 16.88 35.8441 17.9467 38.4468 20.08C41.0494 22.2133 42.3508 25.0933 42.3508 28.72C42.3508 31.024 41.8388 33.2213 40.8148 35.312C39.7908 37.4027 37.8708 39.8347 35.0548 42.608L18.5428 59.056H44.5268ZM67.4053 16.88C73.2079 16.88 77.6453 18.864 80.7173 22.832C83.8319 26.7573 85.3893 32.2613 85.3893 39.344C85.3893 44.2933 84.5573 48.496 82.8933 51.952C81.2719 55.3653 78.9679 57.9467 75.9813 59.696C72.9946 61.4453 69.4959 62.32 65.4853 62.32C61.2613 62.32 57.8693 61.552 55.3093 60.016L56.6533 57.392C58.7866 58.7573 61.7306 59.44 65.4853 59.44C70.6479 59.44 74.7013 57.776 77.6453 54.448C80.6319 51.0773 82.1253 46.2133 82.1253 39.856C82.1253 37.8933 81.9973 36.1013 81.7413 34.48C80.8453 37.3813 79.0959 39.6427 76.4933 41.264C73.9333 42.8853 70.9253 43.696 67.4693 43.696C64.5253 43.696 61.9013 43.1627 59.5973 42.096C57.3359 40.9867 55.5866 39.4293 54.3493 37.424C53.1119 35.376 52.4933 33.0293 52.4933 30.384C52.4933 27.696 53.1333 25.328 54.4133 23.28C55.6933 21.232 57.4639 19.6533 59.7253 18.544C61.9866 17.4347 64.5466 16.88 67.4053 16.88ZM67.9173 40.88C70.3066 40.88 72.4399 40.4107 74.3173 39.472C76.2373 38.5333 77.7093 37.2533 78.7333 35.632C79.7999 34.0107 80.3333 32.1973 80.3333 30.192C80.3333 28.4 79.8213 26.6933 78.7973 25.072C77.8159 23.4507 76.3653 22.1493 74.4453 21.168C72.5253 20.1867 70.2213 19.696 67.5333 19.696C64.0346 19.696 61.1973 20.6773 59.0213 22.64C56.8453 24.56 55.7573 27.12 55.7573 30.32C55.7573 33.52 56.8453 36.08 59.0213 38C61.1973 39.92 64.1626 40.88 67.9173 40.88Z" fill="#3E67B6"/>
<path d="M18.0674 73.4V84H16.1474V75.08H11.5874L11.4674 77.44C11.4008 78.8667 11.2741 80.06 11.0874 81.02C10.9008 81.9667 10.5941 82.7267 10.1674 83.3C9.74076 83.8733 9.14742 84.16 8.38742 84.16C8.04076 84.16 7.64742 84.1 7.20742 83.98L7.32742 82.36C7.50076 82.4 7.66076 82.42 7.80742 82.42C8.34076 82.42 8.74076 82.1867 9.00742 81.72C9.27409 81.2533 9.44742 80.7 9.52742 80.06C9.60742 79.42 9.68076 78.5067 9.74742 77.32L9.92742 73.4H18.0674ZM31.3599 78.76C31.3599 78.9067 31.3466 79.1 31.3199 79.34H22.7199C22.8399 80.2733 23.2466 81.0267 23.9399 81.6C24.6466 82.16 25.5199 82.44 26.5599 82.44C27.8266 82.44 28.8466 82.0133 29.6199 81.16L30.6799 82.4C30.1999 82.96 29.5999 83.3867 28.8799 83.68C28.1733 83.9733 27.3799 84.12 26.4999 84.12C25.3799 84.12 24.3866 83.8933 23.5199 83.44C22.6533 82.9733 21.9799 82.3267 21.4999 81.5C21.0333 80.6733 20.7999 79.74 20.7999 78.7C20.7999 77.6733 21.0266 76.7467 21.4799 75.92C21.9466 75.0933 22.5799 74.4533 23.3799 74C24.1933 73.5333 25.1066 73.3 26.1199 73.3C27.1333 73.3 28.0333 73.5333 28.8199 74C29.6199 74.4533 30.2399 75.0933 30.6799 75.92C31.1333 76.7467 31.3599 77.6933 31.3599 78.76ZM26.1199 74.92C25.1999 74.92 24.4266 75.2 23.7999 75.76C23.1866 76.32 22.8266 77.0533 22.7199 77.96H29.5199C29.4133 77.0667 29.0466 76.34 28.4199 75.78C27.8066 75.2067 27.0399 74.92 26.1199 74.92ZM41.7893 75.08H37.9093V84H35.9893V75.08H32.1093V73.4H41.7893V75.08Z" fill="#3E67B6"/>
</svg>
